<svg width="168" height="126" viewBox="0 0 168 126" fill="none" xmlns="http://www.w3.org/2000/svg">
<g clip-path="url(#clip0_632_133)">
<mask id="mask0_632_133" style="mask-type:luminance" maskUnits="userSpaceOnUse" x="0" y="0" width="168" height="126">
<path d="M0 126L168 126L168 0L0 0L0 126Z" fill="white"/>
</mask>
<g mask="url(#mask0_632_133)">
<path d="M94.1668 112.316C100.274 107.522 105.609 101.647 110.093 94.688C114.577 87.7299 117.051 82.6273 117.36 79.5348C116.278 79.5348 115.118 79.3802 113.881 79.0711C111.485 78.4523 108.779 77.2927 105.841 75.4372C104.062 74.355 102.207 73.0404 100.274 71.4169C99.8877 71.1849 99.5783 70.876 99.1919 70.5666C98.4961 70.0253 97.8003 69.4069 97.1819 68.7111C91.3831 62.9128 88.4455 55.0266 88.4455 45.1309C88.4455 34.1526 92.4658 24.179 100.583 15.1336C105.686 9.41226 111.407 5.4694 117.824 3.382C118.984 2.91813 120.221 2.60873 121.458 2.37679C123.391 1.91293 125.401 1.68099 127.488 1.60399C128.184 1.52653 128.803 1.52653 129.498 1.52653C131.277 1.52653 132.977 1.60399 134.678 1.75846C143.569 2.60873 151.069 5.70133 157.176 11.1133C164.444 17.5304 168 27.8129 168 42.0383C168 56.1863 161.506 72.4221 148.363 90.6678C135.297 108.991 120.221 120.743 103.29 126C97.7228 122.908 94.7077 118.346 94.1668 112.316ZM10.5145 70.1027C10.592 70.1802 10.7464 70.2572 10.8239 70.4121C12.2925 71.6488 13.7616 72.8085 15.1532 73.7362C20.4106 77.5246 25.0493 79.3802 28.9922 79.3802C28.9922 79.4575 28.9147 79.6121 28.9147 79.6894C28.6827 81.4676 27.755 83.9416 26.2089 86.9568C25.0493 89.1989 23.5802 91.7502 21.7248 94.6107C17.2406 101.569 11.8286 107.522 5.56639 112.238C6.10773 118.191 9.12287 122.676 14.6893 125.845C26.0545 122.366 36.7234 115.717 46.774 105.821C52.7273 99.9453 57.9843 93.683 62.391 86.9568C64.0145 84.6374 65.4836 82.1634 66.8752 79.6894C68.0349 77.7565 69.0401 75.7466 70.0453 73.6592C70.2772 73.2723 70.4317 72.8859 70.5861 72.5765C70.973 71.7263 71.3594 70.953 71.6688 70.1027C76.8488 58.7375 79.3226 47.8367 79.3226 37.3997C79.3226 26.1894 75.7661 17.3755 68.5762 10.9588C61.3863 4.54167 52.2634 1.37207 41.0531 1.37207C29.8424 1.37207 20.2557 5.85581 12.138 14.9017C4.09733 23.9471 -9.53e-07 33.9977 0 44.899C0.0774676 55.7224 3.55647 64.1495 10.5145 70.1027Z" fill="#CAD7FC"/>
</g>
</g>
<defs>
<clipPath id="clip0_632_133">
<rect width="168" height="126" fill="white"/>
</clipPath>
</defs>
</svg>
