<svg width="26" height="26" viewBox="0 0 26 26" fill="none" xmlns="http://www.w3.org/2000/svg">
<path d="M12.543 1.21875V1.99063C6.825 2.22473 2.22473 6.825 1.99063 12.543H1.21875V13.457H1.99063C2.22473 19.175 6.825 23.7758 12.543 24.0094V24.7812H13.457V24.0094C19.175 23.7758 23.7758 19.175 24.0094 13.457H24.7812V12.543H24.0094C23.7758 6.825 19.175 2.22473 13.457 1.99063V1.21875H12.543ZM12.543 2.9052V4.46875H13.457V2.9052C18.6773 3.13727 22.8617 7.32266 23.0953 12.543H21.5312V13.457H23.0953C22.8617 18.6773 18.6773 22.8617 13.457 23.0953V21.5312H12.543V23.0953C7.32266 22.8617 3.13727 18.6773 2.9052 13.457H4.46875V12.543H2.9052C3.13727 7.32266 7.32266 3.13727 12.543 2.9052ZM13 5.58594C12.138 5.58594 11.3114 5.92835 10.7019 6.53784C10.0924 7.14733 9.75 7.97398 9.75 8.83594C9.75025 9.46526 9.9332 10.081 10.2767 10.6083C10.6201 11.1357 11.1093 11.552 11.6848 11.8066C8.76484 14.2645 8.22148 17.7531 8.9375 20.6172H17.0625C17.7785 17.7531 17.2301 14.2594 14.3152 11.8016C14.8899 11.5472 15.3786 11.1317 15.722 10.6054C16.0654 10.079 16.2488 9.4644 16.25 8.83594C16.25 7.97398 15.9076 7.14733 15.2981 6.53784C14.6886 5.92835 13.862 5.58594 13 5.58594Z" fill="#089147"/>
</svg>
