<svg width="23" height="23" viewBox="0 0 23 23" fill="none" xmlns="http://www.w3.org/2000/svg">
<g clip-path="url(#clip0_615_4790)">
<path d="M7.66488 10.3117H7.10905C6.35053 10.2843 5.59447 10.4131 4.88779 10.69C4.18111 10.967 3.53889 11.3862 3.00099 11.9217L2.84766 12.1006V17.3906H5.45432V14.3878L5.80571 13.9917L5.96543 13.8064C6.79722 12.9519 7.83277 12.3231 8.9746 11.9792C8.40292 11.5442 7.95205 10.9702 7.66488 10.3117Z" fill="#089147"/>
<path d="M20.0236 11.9027C19.4857 11.3672 18.8435 10.9479 18.1368 10.671C17.4301 10.394 16.6741 10.2653 15.9156 10.2927C15.6829 10.2933 15.4505 10.3061 15.2192 10.331C14.9266 10.9488 14.4881 11.486 13.9414 11.8963C15.1604 12.2335 16.2646 12.8961 17.1359 13.813L17.2956 13.9918L17.6406 14.388V17.3971H20.1578V12.0816L20.0236 11.9027Z" fill="#089147"/>
<path d="M7.09093 9.06579H7.28899C7.19697 8.27564 7.33561 7.47574 7.68819 6.76265C8.04076 6.04956 8.5922 5.45377 9.27593 5.04718C9.02809 4.66854 8.68615 4.36076 8.28362 4.15398C7.88108 3.94719 7.43174 3.8485 6.9796 3.86755C6.52746 3.88661 6.08801 4.02276 5.7043 4.26267C5.32059 4.50259 5.00576 4.83805 4.79065 5.23619C4.57554 5.63434 4.46751 6.08153 4.47716 6.53397C4.4868 6.98641 4.61378 7.42859 4.84566 7.81721C5.07754 8.20583 5.40637 8.52757 5.79996 8.75092C6.19355 8.97427 6.63839 9.09157 7.09093 9.09135V9.06579Z" fill="#089147"/>
<path d="M15.6099 8.58654C15.6176 8.73338 15.6176 8.88053 15.6099 9.02737C15.7325 9.04681 15.8563 9.05749 15.9804 9.05932H16.1018C16.5524 9.03529 16.989 8.89502 17.3693 8.65214C17.7495 8.40927 18.0604 8.07207 18.2716 7.67339C18.4829 7.2747 18.5873 6.82811 18.5747 6.37709C18.5621 5.92607 18.433 5.486 18.1998 5.09971C17.9667 4.71343 17.6375 4.39409 17.2443 4.17279C16.8511 3.9515 16.4073 3.83579 15.9561 3.83692C15.5049 3.83806 15.0617 3.956 14.6696 4.17927C14.2775 4.40254 13.95 4.72353 13.7188 5.11099C14.297 5.48853 14.7725 6.00371 15.1025 6.61031C15.4326 7.21691 15.6069 7.89596 15.6099 8.58654Z" fill="#089147"/>
<path d="M11.4183 11.449C12.9956 11.449 14.2742 10.1704 14.2742 8.59314C14.2742 7.01591 12.9956 5.7373 11.4183 5.7373C9.8411 5.7373 8.5625 7.01591 8.5625 8.59314C8.5625 10.1704 9.8411 11.449 11.4183 11.449Z" fill="#089147"/>
<path d="M11.5694 12.9696C10.735 12.9359 9.9025 13.0714 9.12185 13.3678C8.3412 13.6643 7.6286 14.1156 7.02691 14.6946L6.86719 14.8735V18.9176C6.86968 19.0494 6.8981 19.1793 6.95083 19.3001C7.00355 19.4208 7.07955 19.53 7.17448 19.6214C7.2694 19.7127 7.3814 19.7845 7.50407 19.8326C7.62674 19.8806 7.75768 19.9041 7.88941 19.9015H15.2302C15.362 19.9041 15.4929 19.8806 15.6156 19.8326C15.7383 19.7845 15.8502 19.7127 15.9452 19.6214C16.0401 19.53 16.1161 19.4208 16.1688 19.3001C16.2215 19.1793 16.25 19.0494 16.2525 18.9176V14.8863L16.0991 14.6946C15.5013 14.1138 14.7912 13.6612 14.0123 13.3646C13.2334 13.068 12.4021 12.9335 11.5694 12.9696Z" fill="#089147"/>
</g>
<defs>
<clipPath id="clip0_615_4790">
<rect width="23" height="23" fill="white"/>
</clipPath>
</defs>
</svg>
